<svg xmlns="http://www.w3.org/2000/svg" width="144" height="144" fill="none" viewBox="0 0 144 144"><g clip-path="url(#clip0_1_823)"><path fill="#fff" d="M49.4997 101.077C47.769 105.577 49.1536 108 52.269 110.423C56.0767 113.885 59.5382 116.308 65.769 115.269C73.3844 114.231 80.6536 123.577 76.8459 129.808C74.0767 134.308 69.9228 138.808 65.769 142.269C59.8843 147.115 49.8459 141.231 50.192 133.269C50.192 127.385 47.769 124.269 43.6151 120.808C36.3459 114.577 29.0767 108.346 22.1536 101.769C20.0767 99.6923 17.9997 99 14.8843 99.6923C8.30742 100.731 3.80742 98.6538 1.38434 93.4615C-1.03874 88.6153 0.692033 83.423 5.19203 81C6.23049 80.3076 7.61511 79.6153 7.96126 78.5769C8.99973 74.0769 11.769 71.6538 16.6151 71.6538C21.1151 71.6538 25.9613 74.7692 27.3459 78.923C27.692 79.9615 28.0382 81 28.0382 82.0384C26.3074 90 32.5382 93.1153 37.3843 96.923C38.769 97.9615 41.5382 97.2692 44.6536 97.2692C40.8459 93.4615 40.1536 90.6923 42.9228 87.2307C43.6151 86.5384 42.5767 84.1153 41.5382 82.7307C35.3074 74.423 28.7305 66.1153 22.8459 57.8077C20.769 54.6923 19.3843 50.8846 17.9997 47.0769C14.5382 37.7307 15.2305 29.423 22.8459 22.1538C27.692 17.6538 31.8459 12.8076 35.6536 7.61534C40.8459 0.692264 47.4228 -1.0385 55.3843 -4.31412e-05C66.1151 1.38457 76.1536 5.88457 85.1536 11.423C106.615 24.923 124.961 41.5384 137.769 63.6923C139.154 66.4615 140.538 69.2307 141.577 72.3461C145.384 82.3846 145.384 91.3846 136.731 99.3461C131.884 103.846 127.73 109.385 123.23 114.577C119.423 119.423 114.231 121.154 108.692 120.808C96.2305 120.462 85.4997 115.269 75.1151 109.038C70.9613 106.615 66.8074 103.5 62.6536 101.077C61.6151 100.385 59.192 100.038 58.4997 100.731C55.7305 104.192 52.9613 103.846 49.4997 101.077ZM105.923 68.5384C106.269 68.1923 106.615 68.1923 106.961 67.8461C107.654 68.5384 108.692 69.2307 109.384 70.2692C114.231 78.5769 119.077 87.2307 123.923 95.5384C124.615 96.5769 125.307 97.9615 126.346 98.3076C134.307 100.385 142.269 94.1538 141.923 85.8461C141.577 81 140.538 75.8076 138.461 70.9615C132.577 56.423 122.538 44.6538 111.115 33.923C96.9228 20.7692 81.3459 9.69227 62.3074 4.1538C57.8074 2.76919 52.6151 2.42303 47.769 2.76919C39.4613 3.4615 34.269 11.423 37.0382 19.3846C37.3843 20.423 38.769 21.4615 39.8074 21.8077C65.769 28.0384 85.8459 44.3076 103.5 63.3461C104.192 64.0384 104.192 64.7307 104.884 65.7692C85.4997 46.7307 65.4228 29.7692 38.0767 23.1923C44.6536 52.6153 94.8459 95.5384 122.192 96.923C119.423 86.1923 112.154 77.5384 105.923 68.5384ZM33.9228 12.8076C30.1151 16.9615 26.9997 20.7692 23.5382 24.2307C17.9997 29.7692 16.9613 36.3461 19.3843 43.6153C21.1151 48.4615 22.8459 53.3077 25.269 57.4615C34.9613 74.7692 48.8074 88.2692 64.3844 100.038C75.1151 108 86.5382 114.577 99.692 117.692C114.231 121.5 126.692 114.577 131.538 101.423C123.923 99.6923 115.615 98.3077 108 95.5384C91.0382 89.3077 76.4997 78.5769 63.692 65.7692C49.4997 51.2307 35.9997 35.6538 33.9228 12.8076ZM9.69203 82.0384C3.80742 83.423 1.73049 85.1538 2.07665 89.3076C2.4228 93.4615 5.53819 97.2692 10.0382 97.9615C11.4228 98.3076 12.8074 98.3076 14.192 97.9615C17.9997 96.923 21.1151 98.3077 24.2305 101.077C31.4997 107.654 38.4228 113.885 45.692 120.115C49.8459 123.577 52.269 127.038 51.9228 132.577C51.5767 137.769 56.0767 141.577 60.9228 141.923C65.0767 141.923 67.1536 139.5 67.8459 133.269C71.9997 132.577 75.4613 131.192 75.4613 126.346C75.4613 122.192 71.9997 118.038 67.8459 117.692C66.4613 117.346 64.7305 117.346 63.3459 117.692C59.5382 118.731 56.769 117.346 53.9997 114.923C47.4228 108.692 40.4997 102.808 33.5767 96.923C28.7305 93.1153 24.9228 89.3077 25.6151 82.0384C25.9613 77.5384 21.1151 73.7307 16.6151 73.7307C12.1151 73.7307 10.3843 76.1538 9.69203 82.0384ZM46.0382 87.5769C42.2305 91.0384 42.5767 93.1153 46.3843 95.1923C47.769 95.8846 49.1536 96.923 49.8459 98.3076C52.6151 102.115 55.0382 102.115 57.1151 97.6153C53.6536 94.5 50.192 91.0384 46.0382 87.5769Z"/><path fill="#fff" d="M65.0766 77.1922C67.1535 79.9615 67.8458 82.3845 65.4228 85.1538C62.9997 87.923 60.2305 87.923 57.4612 85.8461C54.692 83.7692 54.692 79.9615 57.1151 77.5384C59.5381 75.1153 62.3074 75.4615 65.0766 77.1922ZM65.0766 84.8076C64.3843 82.0384 64.3843 79.6153 63.3458 78.923C62.3074 78.2307 59.192 78.2307 58.4997 79.2692C57.8074 80.3076 57.8074 83.0768 58.4997 84.1153C59.5381 85.1538 61.9612 84.8076 65.0766 84.8076Z"/><path fill="#fff" d="M36.6919 63.346C34.2689 60.923 34.2689 57.8076 36.3458 55.3845C38.7689 52.9614 41.5381 52.6153 44.3073 55.0384C46.7304 57.1153 47.0765 61.2691 44.9996 63.346C42.2304 65.423 39.4612 65.7691 36.6919 63.346ZM43.9612 55.3845C41.1919 56.0768 38.7689 55.7307 38.0765 57.1153C37.3842 58.1537 37.3842 61.2691 38.4227 61.9614C39.4612 62.6537 42.2304 62.6537 43.2689 61.6153C43.9612 60.5768 43.615 58.4999 43.9612 55.3845Z"/><path fill="#fff" d="M82.0386 104.192C79.9617 101.769 79.6155 98.9999 82.0386 96.5768C84.4617 94.1537 87.5771 93.8075 90.0002 96.2306C92.4232 98.3075 92.7694 101.423 90.6925 104.192C88.6155 106.269 84.4617 106.615 82.0386 104.192ZM82.3848 103.846C85.154 103.154 87.5771 103.5 88.6155 102.461C89.3079 101.423 88.6155 98.9999 88.6155 97.2691C86.8848 97.2691 84.4617 96.5768 83.4232 97.6152C82.7309 98.6537 83.0771 101.077 82.3848 103.846Z"/></g><defs><clipPath id="clip0_1_823"><rect width="144" height="144" fill="#fff"/></clipPath></defs></svg>