<svg xmlns="http://www.w3.org/2000/svg" width="92" height="18" fill="none" viewBox="0 0 92 18"><path fill="#062D3E" d="M11.138 6.878C11.138 7.662 10.949 8.397 10.571 9.083C10.207 9.769 9.626 10.322 8.828 10.742C8.044 11.162 7.05 11.372 5.846 11.372H3.389V17H0.449V2.342H5.846C6.98 2.342 7.946 2.538 8.744 2.93C9.542 3.322 10.137 3.861 10.529 4.547C10.935 5.233 11.138 6.01 11.138 6.878ZM5.72 8.999C6.532 8.999 7.134 8.817 7.526 8.453C7.918 8.075 8.114 7.55 8.114 6.878C8.114 5.45 7.316 4.736 5.72 4.736H3.389V8.999H5.72ZM24.2504 10.931C24.2504 11.351 24.2224 11.729 24.1664 12.065H15.6614C15.7314 12.905 16.0254 13.563 16.5434 14.039C17.0614 14.515 17.6984 14.753 18.4544 14.753C19.5464 14.753 20.3234 14.284 20.7854 13.346H23.9564C23.6204 14.466 22.9764 15.39 22.0244 16.118C21.0724 16.832 19.9034 17.189 18.5174 17.189C17.3974 17.189 16.3894 16.944 15.4934 16.454C14.6114 15.95 13.9184 15.243 13.4144 14.333C12.9244 13.423 12.6794 12.373 12.6794 11.183C12.6794 9.979 12.9244 8.922 13.4144 8.012C13.9044 7.102 14.5904 6.402 15.4724 5.912C16.3544 5.422 17.3694 5.177 18.5174 5.177C19.6234 5.177 20.6104 5.415 21.4784 5.891C22.3604 6.367 23.0394 7.046 23.5154 7.928C24.0054 8.796 24.2504 9.797 24.2504 10.931ZM21.2054 10.091C21.1914 9.335 20.9184 8.733 20.3864 8.285C19.8544 7.823 19.2034 7.592 18.4334 7.592C17.7054 7.592 17.0894 7.816 16.5854 8.264C16.0954 8.698 15.7944 9.307 15.6824 10.091H21.2054ZM30.0293 7.781V13.409C30.0293 13.801 30.1203 14.088 30.3023 14.27C30.4983 14.438 30.8203 14.522 31.2683 14.522H32.6333V17H30.7853C28.3073 17 27.0683 15.796 27.0683 13.388V7.781H25.6823V5.366H27.0683V2.489H30.0293V5.366H32.6333V7.781H30.0293ZM43.9039 8.264V10.742H34.9999V8.264H43.9039ZM56.4621 2.342V4.715H50.3511V8.474H55.0341V10.805H50.3511V17H47.4111V2.342H56.4621ZM60.2478 3.98C59.7298 3.98 59.2958 3.819 58.9458 3.497C58.6098 3.161 58.4418 2.748 58.4418 2.258C58.4418 1.768 58.6098 1.362 58.9458 1.04C59.2958 0.703999 59.7298 0.535999 60.2478 0.535999C60.7658 0.535999 61.1928 0.703999 61.5288 1.04C61.8788 1.362 62.0538 1.768 62.0538 2.258C62.0538 2.748 61.8788 3.161 61.5288 3.497C61.1928 3.819 60.7658 3.98 60.2478 3.98ZM61.6968 5.366V17H58.7568V5.366H61.6968ZM67.7515 7.172C68.1295 6.556 68.6195 6.073 69.2215 5.723C69.8375 5.373 70.5375 5.198 71.3215 5.198V8.285H70.5445C69.6205 8.285 68.9205 8.502 68.4445 8.936C67.9825 9.37 67.7515 10.126 67.7515 11.204V17H64.8115V5.366H67.7515V7.172ZM77.9638 17.189C77.0118 17.189 76.1578 17.021 75.4018 16.685C74.6458 16.335 74.0438 15.866 73.5958 15.278C73.1618 14.69 72.9238 14.039 72.8818 13.325H75.8428C75.8988 13.773 76.1158 14.144 76.4938 14.438C76.8858 14.732 77.3688 14.879 77.9428 14.879C78.5028 14.879 78.9368 14.767 79.2448 14.543C79.5668 14.319 79.7278 14.032 79.7278 13.682C79.7278 13.304 79.5318 13.024 79.1398 12.842C78.7618 12.646 78.1528 12.436 77.3128 12.212C76.4448 12.002 75.7308 11.785 75.1708 11.561C74.6248 11.337 74.1488 10.994 73.7428 10.532C73.3508 10.07 73.1548 9.447 73.1548 8.663C73.1548 8.019 73.3368 7.431 73.7008 6.899C74.0788 6.367 74.6108 5.947 75.2968 5.639C75.9968 5.331 76.8158 5.177 77.7538 5.177C79.1398 5.177 80.2458 5.527 81.0718 6.227C81.8978 6.913 82.3528 7.844 82.4368 9.02H79.6228C79.5808 8.558 79.3848 8.194 79.0348 7.928C78.6988 7.648 78.2438 7.508 77.6698 7.508C77.1378 7.508 76.7248 7.606 76.4308 7.802C76.1508 7.998 76.0108 8.271 76.0108 8.621C76.0108 9.013 76.2068 9.314 76.5988 9.524C76.9908 9.72 77.5998 9.923 78.4258 10.133C79.2658 10.343 79.9588 10.56 80.5048 10.784C81.0508 11.008 81.5198 11.358 81.9118 11.834C82.3178 12.296 82.5278 12.912 82.5418 13.682C82.5418 14.354 82.3528 14.956 81.9748 15.488C81.6108 16.02 81.0788 16.44 80.3788 16.748C79.6928 17.042 78.8878 17.189 77.9638 17.189ZM88.5881 7.781V13.409C88.5881 13.801 88.6791 14.088 88.8611 14.27C89.0571 14.438 89.3791 14.522 89.8271 14.522H91.1921V17H89.3441C86.8661 17 85.6271 15.796 85.6271 13.388V7.781H84.2411V5.366H85.6271V2.489H88.5881V5.366H91.1921V7.781H88.5881Z"/></svg>